<svg width="24" height="24" viewBox="0 0 24 24" fill="none" xmlns="http://www.w3.org/2000/svg">
<path d="M4.35 18.45L4.4775 18.2723L10.4925 6.86177L10.5052 6.74102L7.854 1.76102C7.80546 1.66995 7.72952 1.59645 7.63691 1.55091C7.54431 1.50538 7.43973 1.49012 7.33797 1.50728C7.23622 1.52445 7.14243 1.57318 7.06989 1.64657C6.99735 1.71997 6.94972 1.81432 6.93375 1.91627L4.35 18.45Z" fill="#FFC24A"/>
<path d="M4.425 18.315L4.521 18.1275L10.4738 6.83552L7.82925 1.83602C7.78564 1.74907 7.71504 1.6786 7.62801 1.63515C7.54098 1.5917 7.44222 1.57763 7.34652 1.59503C7.25082 1.61243 7.16333 1.66037 7.09716 1.73167C7.031 1.80297 6.98972 1.89378 6.9795 1.99052L4.425 18.315Z" fill="#FFA712"/>
<path d="M12.438 10.5075L14.412 8.48247L12.4372 4.71672C12.3938 4.63568 12.3292 4.56794 12.2502 4.52071C12.1713 4.47349 12.0811 4.44855 11.9891 4.44855C11.8972 4.44855 11.8069 4.47349 11.728 4.52071C11.6491 4.56794 11.5845 4.63568 11.541 4.71672L10.4857 6.72822V6.89997L12.438 10.5075Z" fill="#F4BD62"/>
<path d="M12.4027 10.425L14.322 8.45998L12.4027 4.79998C12.3713 4.72076 12.3177 4.65231 12.2482 4.6029C12.1788 4.55348 12.0966 4.52521 12.0114 4.52148C11.9263 4.51775 11.8419 4.53874 11.7684 4.5819C11.6949 4.62506 11.6355 4.68855 11.5972 4.76473L10.5367 6.81148L10.5052 6.91573L12.4027 10.425Z" fill="#FFA50E"/>
<path d="M4.3515 18.4507L4.40925 18.3922L4.6185 18.3075L12.3135 10.641L12.411 10.3755L10.4918 6.71698L4.3515 18.4507Z" fill="#F6820C"/>
<path d="M12.684 22.317L19.65 18.4327L17.6595 6.18449C17.6452 6.09815 17.6074 6.01741 17.5503 5.95113C17.4931 5.88485 17.4188 5.8356 17.3355 5.80879C17.2522 5.78198 17.1631 5.77864 17.0781 5.79914C16.993 5.81964 16.9152 5.86318 16.8532 5.92499L4.35 18.45L11.2747 22.3162C11.49 22.4364 11.7325 22.4994 11.979 22.4994C12.2255 22.4994 12.468 22.4364 12.6832 22.3162" fill="#FDE068"/>
<path d="M19.5863 18.4005L17.6123 6.2445C17.6088 6.16191 17.5809 6.08221 17.5321 6.0155C17.4833 5.94878 17.4158 5.89803 17.3381 5.86969C17.2605 5.84134 17.1762 5.83667 17.0959 5.85626C17.0156 5.87585 16.9429 5.91883 16.887 5.97975L4.425 18.4267L11.2733 22.2517C11.4868 22.3709 11.7273 22.4334 11.9719 22.4334C12.2164 22.4334 12.4569 22.3709 12.6705 22.2517L19.5863 18.4005Z" fill="#FCCA3F"/>
<path d="M12.684 22.2C12.4687 22.3201 12.2263 22.3832 11.9797 22.3832C11.7332 22.3832 11.4908 22.3201 11.2755 22.2L4.407 18.3915L4.35 18.45L11.2747 22.3163C11.49 22.4364 11.7325 22.4995 11.979 22.4995C12.2255 22.4995 12.468 22.4364 12.6832 22.3163L19.65 18.4328L19.6327 18.3278L12.684 22.2Z" fill="#EEAB37"/>
</svg>
