<svg width="24" height="24" viewBox="0 0 24 24" fill="none" xmlns="http://www.w3.org/2000/svg">
<path d="M15.9611 7.67049L18.0473 5.58427L18.1863 4.70583C14.3847 1.24899 8.34145 1.64096 4.91442 5.52371C3.96248 6.60211 3.25626 7.94658 2.87967 9.33493L3.62686 9.22964L7.7992 8.54161L8.12133 8.21218C9.97729 6.17386 13.1154 5.89964 15.2583 7.63393L15.9611 7.67049Z" fill="#EA4335"/>
<path d="M21.0192 9.27356C20.5397 7.50768 19.5552 5.92022 18.1863 4.70587L15.2583 7.63387C16.4947 8.64412 17.1991 10.1661 17.1689 11.7623V12.2821C18.608 12.2821 19.7748 13.4488 19.7748 14.888C19.7748 16.3272 18.608 17.4647 17.1689 17.4647H11.9497L11.4373 18.021V21.1466L11.9497 21.637H17.1689C20.9123 21.6662 23.9706 18.6845 23.9998 14.941C24.0174 12.672 22.8987 10.5448 21.0192 9.27356Z" fill="#4285F4"/>
<path d="M6.73784 21.6371H11.9497V17.4647H6.73784C6.3665 17.4646 6.00687 17.3848 5.66919 17.2305L4.92978 17.4573L2.82894 19.5436L2.64594 20.2536C3.82409 21.1432 5.26156 21.6435 6.73784 21.6371Z" fill="#34A853"/>
<path d="M6.73784 8.1024C2.99431 8.12471 -0.0221895 11.1776 0.000122987 14.921C0.0125917 17.0115 0.988904 18.9793 2.64594 20.2536L5.66919 17.2305C4.35753 16.6379 3.77469 15.0943 4.36728 13.7827C4.95978 12.4711 6.50347 11.8883 7.81493 12.4808C8.3929 12.7419 8.85575 13.2048 9.11684 13.7827L12.1401 10.7596C10.8537 9.07796 8.855 8.09481 6.73784 8.1024Z" fill="#FBBC05"/>
</svg>
