<svg width="24" height="24" viewBox="0 0 24 24" fill="none" xmlns="http://www.w3.org/2000/svg">
<path d="M22.5 1.5H1.5V22.5H22.5V1.5Z" fill="#F5DE19"/>
<path d="M15.6068 17.9063C15.7857 18.2697 16.0637 18.5752 16.4087 18.7875C16.7537 18.9999 17.1517 19.1104 17.5568 19.1063C18.3743 19.1063 18.897 18.6975 18.897 18.1313C18.897 17.4563 18.36 17.2148 17.46 16.821L16.9665 16.6095C15.5415 16.0028 14.5965 15.243 14.5965 13.6365C14.5965 12.1568 15.7215 11.0295 17.4863 11.0295C18.0575 10.9883 18.6283 11.1162 19.1274 11.3972C19.6265 11.6782 20.0318 12.0999 20.2928 12.6098L18.75 13.596C18.6495 13.3432 18.4746 13.1269 18.2483 12.9759C18.0221 12.8248 17.7553 12.746 17.4833 12.75C17.3646 12.7382 17.2447 12.7511 17.1313 12.7881C17.0179 12.8251 16.9135 12.8853 16.8247 12.9649C16.7358 13.0445 16.6646 13.1418 16.6154 13.2504C16.5662 13.3591 16.5402 13.4768 16.539 13.596C16.539 14.1878 16.9058 14.4278 17.7525 14.7961L18.246 15.0075C19.923 15.7268 20.871 16.4595 20.871 18.1073C20.871 19.884 19.4753 20.8575 17.601 20.8575C16.8707 20.9041 16.1426 20.7383 15.5045 20.3802C14.8663 20.022 14.3455 19.4869 14.0048 18.8393L15.6068 17.9063ZM8.63551 18.0773C8.94526 18.627 9.22726 19.092 9.90526 19.092C10.5533 19.092 10.9628 18.8385 10.9628 17.8523V11.142H12.936V17.8785C12.936 19.9215 11.736 20.8515 9.98926 20.8515C9.37182 20.8853 8.75862 20.7314 8.23027 20.4102C7.70192 20.0889 7.28315 19.6153 7.02901 19.0515L8.63551 18.0773Z" fill="black"/>
</svg>
