<svg width="24" height="22" viewBox="0 0 24 22" fill="none" xmlns="http://www.w3.org/2000/svg">
<g clip-path="url(#clip0_9_67)">
<path d="M12 13.0251C13.2624 13.0251 14.2857 12.0065 14.2857 10.75C14.2857 9.49346 13.2624 8.47485 12 8.47485C10.7376 8.47485 9.71429 9.49346 9.71429 10.75C9.71429 12.0065 10.7376 13.0251 12 13.0251Z" fill="#149DCA"/>
<path d="M12 15.8691C18.3118 15.8691 23.4286 13.5772 23.4286 10.75C23.4286 7.92286 18.3118 5.63098 12 5.63098C5.68819 5.63098 0.571442 7.92286 0.571442 10.75C0.571442 13.5772 5.68819 15.8691 12 15.8691Z" stroke="#149DCA"/>
<path d="M7.54616 13.3095C10.7021 18.7504 15.2545 22.0152 17.7143 20.6016C20.1741 19.188 19.6098 13.6314 16.4538 8.19048C13.2979 2.74958 8.74551 -0.515195 6.28572 0.898391C3.82593 2.31198 4.39025 7.86863 7.54616 13.3095Z" stroke="#149DCA"/>
<path d="M7.54618 8.19045C4.39026 13.6313 3.82595 19.188 6.28574 20.6016C8.74553 22.0152 13.298 18.7504 16.4539 13.3095C19.6098 7.8686 20.1741 2.31195 17.7143 0.898362C15.2545 -0.515224 10.7021 2.74955 7.54618 8.19045Z" stroke="#149DCA"/>
</g>
<defs>
<clipPath id="clip0_9_67">
<rect width="24" height="21.5" fill="white"/>
</clipPath>
</defs>
</svg>
