<svg width="24" height="24" viewBox="0 0 24 24" fill="none" xmlns="http://www.w3.org/2000/svg">
<path d="M21.516 1.5H2.484C1.94055 1.5 1.5 1.94055 1.5 2.484V21.516C1.5 22.0594 1.94055 22.5 2.484 22.5H21.516C22.0594 22.5 22.5 22.0594 22.5 21.516V2.484C22.5 1.94055 22.0594 1.5 21.516 1.5Z" fill="#3178C6"/>
<path fill-rule="evenodd" clip-rule="evenodd" d="M13.6838 17.8193V20.1203C14.1018 20.3266 14.5474 20.4718 15.0068 20.5515C15.5376 20.6495 16.0764 20.6977 16.6163 20.6955C17.1424 20.698 17.6673 20.645 18.1823 20.5373C18.6446 20.4438 19.0858 20.2659 19.4835 20.0123C19.8527 19.7739 20.1571 19.4477 20.3693 19.0628C20.7492 18.2658 20.7993 17.351 20.5088 16.5173C20.3861 16.2055 20.2034 15.9208 19.971 15.6795C19.7215 15.4229 19.4382 15.2016 19.1287 15.0218C18.7725 14.8131 18.4024 14.6292 18.021 14.4713C17.721 14.3468 17.451 14.2258 17.211 14.1083C16.9978 14.0062 16.7938 13.886 16.6013 13.749C16.4504 13.6433 16.3194 13.5118 16.2143 13.3605C16.1234 13.2232 16.0761 13.0617 16.0785 12.897C16.0765 12.7455 16.1187 12.5967 16.2 12.4688C16.2883 12.3349 16.406 12.223 16.5443 12.1418C16.7132 12.0423 16.897 11.9706 17.0888 11.9295C17.3241 11.8772 17.5647 11.8521 17.8057 11.8545C18.0085 11.8552 18.211 11.8697 18.4118 11.898C18.6286 11.9273 18.8431 11.9717 19.0538 12.0308C19.268 12.0902 19.4776 12.1654 19.6807 12.2558C19.8779 12.3436 20.0664 12.4496 20.244 12.5723V10.425C19.8743 10.2852 19.491 10.1846 19.1002 10.125C18.6284 10.0564 18.152 10.024 17.6753 10.0283C17.1541 10.0255 16.6344 10.0846 16.1273 10.2045C15.6688 10.3093 15.2329 10.4955 14.8403 10.7543C14.4755 10.9972 14.1743 11.3241 13.962 11.7075C13.737 12.1333 13.6256 12.6099 13.6387 13.0913C13.6221 13.7279 13.8318 14.3497 14.2305 14.8463C14.7196 15.3968 15.3364 15.8189 16.0268 16.0755C16.3417 16.2055 16.6355 16.3328 16.908 16.4573C17.1539 16.5667 17.3902 16.6964 17.6145 16.845C17.7954 16.9627 17.9543 17.1112 18.084 17.2838C18.198 17.4403 18.2585 17.6294 18.2565 17.823C18.2575 17.9681 18.2203 18.1109 18.1485 18.237C18.0687 18.3725 17.9567 18.4862 17.8223 18.5678C17.6541 18.6703 17.4701 18.7443 17.2778 18.7868C17.0272 18.8428 16.771 18.8692 16.5142 18.8655C16.0105 18.8646 15.5107 18.7758 15.0375 18.603C14.5431 18.4246 14.0846 18.1592 13.6838 17.8193ZM9.81825 12.0908H12.8183V10.1955H4.4535V12.0908H7.44V20.5313H9.81825V12.0908Z" fill="white"/>
</svg>
