<svg width="24" height="25" viewBox="0 0 24 25" fill="none" xmlns="http://www.w3.org/2000/svg">
<path d="M21.75 7.28625V17.7863C21.75 18.383 21.5129 18.9553 21.091 19.3772C20.669 19.7992 20.0967 20.0363 19.5 20.0363H4.5C3.90326 20.0363 3.33097 19.7992 2.90901 19.3772C2.48705 18.9553 2.25 18.383 2.25 17.7863V7.28625M21.75 7.28625C21.75 6.68952 21.5129 6.11722 21.091 5.69526C20.669 5.27331 20.0967 5.03625 19.5 5.03625H4.5C3.90326 5.03625 3.33097 5.27331 2.90901 5.69526C2.48705 6.11722 2.25 6.68952 2.25 7.28625M21.75 7.28625V7.52925C21.75 7.9134 21.6517 8.29116 21.4644 8.62655C21.2771 8.96194 21.0071 9.24379 20.68 9.44526L13.18 14.0603C12.8252 14.2788 12.4167 14.3945 12 14.3945C11.5833 14.3945 11.1748 14.2788 10.82 14.0603L3.32 9.44625C2.99292 9.24479 2.72287 8.96294 2.53557 8.62755C2.34827 8.29216 2.24996 7.9144 2.25 7.53025V7.28625" stroke="inherit" stroke-width="1.5" stroke-linecap="round" stroke-linejoin="round"/>
</svg>
