<svg width="24" height="25" viewBox="0 0 24 25" fill="none" xmlns="http://www.w3.org/2000/svg">
<path d="M12 2.78283C6.47833 2.78283 2 7.26033 2 12.7828C2 17.2012 4.865 20.9495 8.83917 22.272C9.33833 22.3645 9.5 22.0545 9.5 21.7912V19.9295C6.71833 20.5345 6.13917 18.7495 6.13917 18.7495C5.68417 17.5937 5.02833 17.2862 5.02833 17.2862C4.12083 16.6653 5.0975 16.6787 5.0975 16.6787C6.10167 16.7487 6.63 17.7095 6.63 17.7095C7.52167 19.2378 8.96917 18.7962 9.54 18.5403C9.62917 17.8945 9.88833 17.4528 10.175 17.2037C7.95417 16.9495 5.61917 16.092 5.61917 12.2612C5.61917 11.1687 6.01 10.277 6.64917 9.57699C6.54583 9.32449 6.20333 8.30699 6.74667 6.93033C6.74667 6.93033 7.58667 6.66199 9.4975 7.95533C10.295 7.73366 11.15 7.62283 12 7.61866C12.85 7.62283 13.7058 7.73366 14.505 7.95533C16.4142 6.66199 17.2525 6.93033 17.2525 6.93033C17.7967 8.30783 17.4542 9.32533 17.3508 9.57699C17.9925 10.277 18.38 11.1695 18.38 12.2612C18.38 16.102 16.0408 16.9478 13.8142 17.1953C14.1725 17.5053 14.5 18.1137 14.5 19.047V21.7912C14.5 22.057 14.66 22.3695 15.1675 22.2712C19.1383 20.947 22 17.1995 22 12.7828C22 7.26033 17.5225 2.78283 12 2.78283Z" fill="#F5F1ED"/>
</svg>
