<svg width="24" height="25" viewBox="0 0 24 25" fill="none" xmlns="http://www.w3.org/2000/svg">
<path d="M11.25 12.002L11.291 11.982C11.4192 11.9179 11.5631 11.892 11.7057 11.9072C11.8482 11.9223 11.9834 11.9781 12.0952 12.0677C12.2071 12.1574 12.2909 12.2772 12.3368 12.413C12.3826 12.5488 12.3886 12.6949 12.354 12.834L11.646 15.67C11.6111 15.8092 11.6169 15.9554 11.6627 16.0914C11.7084 16.2274 11.7922 16.3474 11.9041 16.4372C12.016 16.527 12.1513 16.5828 12.294 16.598C12.4367 16.6132 12.5807 16.5872 12.709 16.523L12.75 16.502M21 12.752C21 13.9339 20.7672 15.1042 20.3149 16.1961C19.8626 17.2881 19.1997 18.2802 18.364 19.116C17.5282 19.9517 16.5361 20.6146 15.4442 21.0669C14.3522 21.5192 13.1819 21.752 12 21.752C10.8181 21.752 9.64778 21.5192 8.55585 21.0669C7.46392 20.6146 6.47177 19.9517 5.63604 19.116C4.80031 18.2802 4.13738 17.2881 3.68508 16.1961C3.23279 15.1042 3 13.9339 3 12.752C3 10.3651 3.94821 8.07587 5.63604 6.38804C7.32387 4.70021 9.61305 3.752 12 3.752C14.3869 3.752 16.6761 4.70021 18.364 6.38804C20.0518 8.07587 21 10.3651 21 12.752ZM12 9.002H12.008V9.01H12V9.002Z" stroke="#F5F1ED" stroke-width="1.5" stroke-linecap="round" stroke-linejoin="round"/>
</svg>
