<svg width="24" height="25" viewBox="0 0 24 25" fill="none" xmlns="http://www.w3.org/2000/svg">
<path d="M9 12.252H12.75M9 15.252H12.75M9 18.252H12.75M15.75 19.002H18C18.5967 19.002 19.169 18.7649 19.591 18.343C20.0129 17.921 20.25 17.3487 20.25 16.752V6.36C20.25 5.225 19.405 4.262 18.274 4.168C17.9 4.13698 17.5256 4.11031 17.151 4.088M17.151 4.088C17.2174 4.30308 17.2501 4.52691 17.25 4.752C17.25 4.95091 17.171 5.14168 17.0303 5.28233C16.8897 5.42298 16.6989 5.502 16.5 5.502H12C11.586 5.502 11.25 5.166 11.25 4.752C11.25 4.521 11.285 4.298 11.35 4.088M17.151 4.088C16.868 3.17 16.012 2.502 15 2.502H13.5C13.0192 2.50211 12.5511 2.65614 12.1643 2.94154C11.7774 3.22693 11.492 3.6287 11.35 4.088M11.35 4.088C10.974 4.111 10.6 4.138 10.226 4.168C9.095 4.262 8.25 5.225 8.25 6.36V8.502M8.25 8.502H4.875C4.254 8.502 3.75 9.006 3.75 9.627V20.877C3.75 21.498 4.254 22.002 4.875 22.002H14.625C15.246 22.002 15.75 21.498 15.75 20.877V9.627C15.75 9.006 15.246 8.502 14.625 8.502H8.25ZM6.75 12.252H6.758V12.26H6.75V12.252ZM6.75 15.252H6.758V15.26H6.75V15.252ZM6.75 18.252H6.758V18.26H6.75V18.252Z" stroke="#F5F1ED" stroke-width="1.5" stroke-linecap="round" stroke-linejoin="round"/>
</svg>
