<svg width="56" height="56" viewBox="0 0 56 56" fill="none" xmlns="http://www.w3.org/2000/svg">
<rect width="56" height="56" rx="8" fill="#2B2D42"/>
<path d="M9.36 23C10.8533 21.4267 12.2533 20.64 13.56 20.64C14.7067 20.64 15.8533 21.2933 17 22.6L10.2 29.2L17.08 35.88C16.6 36.4667 16.0667 36.9333 15.48 37.28C14.92 37.6267 14.2933 37.8 13.6 37.8C12.9867 37.8 12.3333 37.6267 11.64 37.28C10.9467 36.9067 10.2133 36.3067 9.44 35.48L3.4 29.16L9.36 23ZM28.3597 9.52H28.8397C29.4264 9.52 30.0264 9.58667 30.6397 9.72C31.2797 9.85333 31.853 10.1067 32.3597 10.48C32.893 10.8267 33.3197 11.32 33.6397 11.96C33.9597 12.5733 34.1197 13.36 34.1197 14.32V20.56C34.1197 21.52 33.9597 22.32 33.6397 22.96C33.3197 23.5733 32.893 24.0667 32.3597 24.44C31.853 24.7867 31.2797 25.0267 30.6397 25.16C30.0264 25.2933 29.4264 25.36 28.8397 25.36H28.3597V9.52ZM26.8397 40H26.3597C25.7464 40 25.133 39.9333 24.5197 39.8C23.9064 39.6667 23.333 39.4267 22.7997 39.08C22.293 38.7067 21.8797 38.2133 21.5597 37.6C21.2397 36.96 21.0797 36.16 21.0797 35.2V28.96C21.0797 28 21.2397 27.2133 21.5597 26.6C21.8797 25.96 22.293 25.4667 22.7997 25.12C23.333 24.7467 23.9064 24.4933 24.5197 24.36C25.133 24.2267 25.7464 24.16 26.3597 24.16H26.8397V40ZM51.8113 29.16L45.7713 35.48C44.9979 36.3067 44.2513 36.9067 43.5313 37.28C42.8113 37.6267 42.1446 37.8 41.5312 37.8C40.8646 37.8 40.2513 37.6267 39.6913 37.28C39.1313 36.9333 38.6113 36.4667 38.1313 35.88L45.0113 29.2L38.2113 22.6C39.3579 21.2933 40.5046 20.64 41.6513 20.64C42.9313 20.64 44.3313 21.4267 45.8513 23L51.8113 29.16Z" fill="#F5F1ED"/>
</svg>
